<?xml version="1.0" standalone="no"?>
<!DOCTYPE svg PUBLIC "-//W3C//DTD SVG 20010904//EN"
 "http://www.w3.org/TR/2001/REC-SVG-20010904/DTD/svg10.dtd">
<svg version="1.0" xmlns="http://www.w3.org/2000/svg"
 width="1496.000000pt" height="1092.000000pt" viewBox="0 0 1496.000000 1092.000000"
 preserveAspectRatio="xMidYMid meet">

<g transform="translate(0.000000,1092.000000) scale(0.100000,-0.100000)"
fill="#000000" stroke="none">
<path d="M7130 10401 c0 -17 15 -19 218 -25 435 -13 707 -58 1105 -182 99 -31
180 -54 182 -52 1 2 5 12 9 24 6 19 -6 24 -143 68 -413 130 -757 186 -1153
186 -206 0 -218 -1 -218 -19z"/>
<path d="M6185 10246 c-424 -143 -726 -297 -1073 -549 -108 -78 -121 -91 -110
-105 7 -10 13 -19 14 -20 1 -2 68 43 149 100 339 241 668 406 1073 539 114 37
132 46 130 63 -2 11 -7 21 -13 23 -5 1 -82 -21 -170 -51z"/>
<path d="M9331 9817 c-6 -6 -11 -16 -11 -23 0 -7 48 -47 108 -91 360 -262 646
-555 898 -920 52 -76 99 -139 103 -141 4 -1 14 4 21 13 11 13 7 24 -25 73
-271 412 -560 715 -966 1014 -86 63 -120 83 -128 75z"/>
<path d="M7010 9803 c-114 -12 -324 -48 -429 -73 -124 -30 -384 -112 -410
-129 -12 -8 -6 -37 40 -181 30 -95 57 -177 61 -183 4 -7 54 4 155 35 81 26
184 56 228 67 223 56 532 87 756 76 l136 -7 6 68 c4 38 7 126 7 195 0 107 -3
128 -16 133 -16 6 -472 6 -534 -1z"/>
<path d="M8115 9688 c-3 -7 -31 -90 -64 -184 l-59 -171 146 -53 c327 -116 538
-232 818 -446 l121 -93 114 149 c63 82 114 155 114 162 0 18 -163 148 -305
243 -229 153 -473 273 -730 360 -132 44 -150 48 -155 33z"/>
<path d="M5555 9273 c-313 -218 -580 -484 -788 -786 -35 -51 -67 -97 -71 -104
-4 -7 49 -52 141 -119 82 -59 153 -111 159 -116 8 -5 33 21 75 79 220 306 390
480 682 698 64 48 117 92 117 97 0 15 -214 307 -225 307 -5 0 -46 -25 -90 -56z"/>
<path d="M4349 8941 c-268 -363 -426 -662 -573 -1083 -53 -151 -54 -157 -34
-164 11 -3 23 -2 27 3 5 4 25 58 45 118 137 403 290 701 544 1054 57 80 106
150 109 157 2 7 -4 17 -14 22 -15 9 -30 -6 -104 -107z"/>
<path d="M9547 8532 c-86 -59 -156 -110 -157 -113 0 -4 51 -84 114 -178 173
-259 283 -495 380 -815 20 -66 37 -120 39 -121 2 -2 329 96 359 107 15 6 15
12 2 65 -96 372 -263 730 -488 1046 -38 53 -74 101 -81 107 -7 6 -61 -25 -168
-98z"/>
<path d="M7275 8490 c-478 -28 -920 -252 -1232 -623 -186 -223 -318 -492 -372
-762 -106 -530 -3 -1052 286 -1458 68 -95 227 -264 321 -340 393 -320 904
-450 1456 -372 211 30 393 86 581 179 144 71 227 124 358 228 l87 70 0 854 0
854 -650 0 -650 0 0 -395 0 -395 225 0 225 0 -2 -237 -3 -237 -45 -22 c-172
-86 -495 -105 -735 -44 -281 71 -508 286 -598 565 -142 440 -8 909 323 1135
170 116 338 163 575 163 272 -1 520 -82 729 -240 32 -24 63 -46 70 -49 9 -3
248 250 519 552 l47 53 -87 72 c-400 331 -877 481 -1428 449z m393 -81 c201
-22 440 -92 617 -181 139 -70 223 -125 378 -249 19 -15 12 -24 -208 -265 -124
-137 -232 -250 -239 -252 -6 -1 -50 23 -96 54 -224 151 -490 224 -765 210
-346 -16 -620 -165 -798 -433 -53 -80 -84 -149 -124 -280 -25 -83 -27 -99 -27
-293 0 -223 12 -301 71 -449 118 -299 380 -509 708 -566 263 -45 523 -18 705
72 l75 38 3 293 2 292 -225 0 -225 0 0 325 0 325 580 0 580 0 0 -803 0 -803
-62 -50 c-257 -205 -545 -333 -863 -384 -504 -80 -979 18 -1339 275 -240 171
-433 397 -556 650 -219 451 -218 1097 2 1540 254 510 724 853 1273 930 113 16
405 18 533 4z"/>
<path d="M10778 7953 c-10 -3 -18 -10 -18 -16 0 -7 21 -84 46 -172 102 -361
134 -593 143 -1015 l6 -315 23 -3 22 -3 0 248 c0 433 -37 703 -151 1118 -23
83 -45 153 -48 156 -3 3 -14 4 -23 2z"/>
<path d="M4416 7825 c-27 -65 -84 -249 -114 -370 -62 -245 -84 -437 -86 -715
l-1 -215 198 -3 197 -2 0 164 c0 326 38 563 147 908 26 82 44 149 42 151 -5 5
-355 117 -363 117 -3 0 -12 -16 -20 -35z"/>
<path d="M3588 6823 c-12 -467 45 -869 188 -1329 24 -77 28 -82 47 -74 12 4
21 12 21 17 -1 4 -23 79 -48 165 -113 381 -156 678 -159 1097 -2 235 -2 236
-24 239 -21 3 -22 0 -25 -115z"/>
<path d="M9980 6728 c0 -328 -49 -616 -164 -956 -31 -93 -41 -134 -33 -137 7
-3 90 -31 186 -63 l173 -59 23 51 c33 75 92 261 124 396 57 233 91 518 91 776
l0 111 -137 6 c-75 4 -165 7 -200 7 l-63 0 0 -132z"/>
<path d="M4575 6045 c-38 -13 -116 -38 -173 -56 l-103 -32 6 -31 c4 -17 33
-110 65 -206 65 -195 141 -373 225 -524 64 -115 228 -363 277 -418 l33 -37
153 109 c85 59 156 111 159 113 2 3 -36 63 -85 134 -196 279 -319 530 -418
851 -28 90 -41 122 -53 121 -9 0 -47 -11 -86 -24z"/>
<path d="M10743 5506 c-135 -376 -309 -698 -555 -1024 -83 -110 -98 -135 -88
-147 7 -8 16 -15 20 -15 8 0 156 196 242 320 109 158 241 397 328 595 63 144
161 417 156 432 -3 7 -13 13 -23 13 -14 0 -31 -38 -80 -174z"/>
<path d="M9513 5173 c-204 -287 -419 -504 -702 -708 -67 -48 -120 -92 -118
-98 7 -21 213 -306 221 -307 17 0 188 120 311 219 138 111 319 288 422 412 69
83 206 267 224 301 7 13 -17 36 -139 125 -81 60 -152 112 -159 116 -7 5 -29
-18 -60 -60z"/>
<path d="M4163 4723 c-7 -2 -13 -9 -13 -15 0 -13 154 -229 245 -343 176 -220
379 -420 625 -615 171 -135 187 -145 205 -130 8 7 15 16 15 20 0 4 -51 46
-114 93 -175 132 -289 230 -431 372 -158 158 -263 283 -402 478 -58 81 -108
147 -111 146 -4 0 -13 -3 -19 -6z"/>
<path d="M5416 4488 c-133 -177 -135 -148 16 -264 272 -208 609 -384 941 -490
69 -22 121 -33 126 -28 17 19 124 355 115 363 -5 5 -47 21 -94 36 -323 104
-569 232 -850 440 -70 52 -130 95 -134 95 -3 0 -57 -69 -120 -152z"/>
<path d="M8110 4120 c-282 -87 -476 -118 -810 -127 -147 -4 -228 -10 -232 -17
-4 -6 -8 -93 -8 -193 l0 -181 107 -7 c182 -13 487 10 698 51 191 37 517 132
531 155 3 5 -17 80 -44 167 -28 86 -53 167 -57 180 -3 12 -12 22 -18 21 -7 0
-82 -22 -167 -49z"/>
<path d="M9381 3709 c-188 -129 -294 -192 -487 -288 -188 -94 -329 -150 -556
-223 -152 -48 -167 -55 -162 -73 4 -11 8 -22 10 -24 5 -6 335 102 449 147 242
94 524 246 769 414 161 111 163 112 146 132 -7 9 -15 16 -19 15 -3 0 -71 -45
-150 -100z"/>
<path d="M5907 3268 c-4 -12 -5 -24 -3 -26 11 -11 351 -118 453 -143 334 -80
564 -109 881 -109 l182 0 0 25 0 25 -182 0 c-406 1 -767 63 -1188 205 -74 25
-135 45 -136 45 -1 0 -4 -10 -7 -22z"/>
<path d="M1849 2307 c-158 -54 -276 -184 -319 -351 -19 -74 -20 -110 -20 -530
0 -498 3 -527 63 -640 43 -83 136 -175 217 -214 243 -118 540 -14 655 230 46
99 55 164 55 425 l0 222 -196 3 c-108 2 -218 1 -245 0 l-50 -4 3 -146 3 -147
90 -5 90 -5 3 -63 c4 -94 -18 -160 -72 -210 -117 -108 -281 -39 -307 129 -5
37 -8 237 -7 469 3 402 3 405 27 453 40 82 120 124 202 106 96 -22 148 -100
157 -236 l5 -83 148 0 149 0 0 68 c-1 163 -43 296 -126 391 -122 140 -346 199
-525 138z"/>
<path d="M3008 2311 c-159 -52 -280 -173 -328 -329 -19 -60 -20 -93 -20 -551
0 -291 5 -504 11 -530 19 -84 60 -154 135 -228 84 -85 161 -126 272 -144 241
-40 483 123 547 366 22 87 22 973 0 1060 -38 144 -136 265 -268 330 -73 36
-84 39 -185 42 -85 2 -119 -1 -164 -16z m237 -304 c26 -15 49 -40 67 -72 l28
-50 0 -456 0 -456 -23 -44 c-76 -143 -272 -140 -338 6 -17 37 -19 75 -19 494
0 445 0 456 21 499 46 94 171 131 264 79z"/>
<path d="M6180 2314 c-154 -41 -304 -200 -340 -357 -6 -30 -10 -230 -10 -535
-1 -556 0 -562 84 -684 210 -309 673 -278 836 56 26 52 44 106 50 151 12 78 9
511 -2 508 -5 -2 -114 -3 -243 -3 l-236 0 3 -147 3 -148 93 -3 92 -3 0 -82 c0
-156 -69 -242 -194 -242 -69 0 -106 20 -154 82 l-27 36 -3 477 -3 477 33 48
c40 59 91 87 157 87 115 0 181 -82 189 -234 l4 -88 149 0 149 0 0 68 c-1 279
-127 467 -359 536 -68 20 -197 20 -271 0z"/>
<path d="M7308 2307 c-162 -56 -279 -184 -323 -352 -22 -88 -22 -973 1 -1060
63 -243 310 -406 552 -365 188 31 350 177 397 355 22 87 22 992 0 1080 -36
138 -138 259 -272 322 -72 35 -85 38 -183 41 -89 2 -115 -1 -172 -21z m242
-297 c39 -20 72 -58 89 -102 5 -14 11 -226 12 -479 3 -444 2 -455 -18 -494
-37 -71 -105 -115 -176 -115 -50 0 -118 39 -152 88 l-30 44 -3 451 c-2 319 1
464 9 494 13 46 59 99 104 119 45 20 120 17 165 -6z"/>
<path d="M4030 2288 c-5 -13 -23 -102 -40 -198 -17 -96 -44 -247 -61 -335 -16
-88 -70 -385 -119 -660 -49 -275 -92 -510 -95 -522 l-5 -23 149 0 149 0 12 82
c18 126 5 118 188 118 86 0 163 -4 169 -8 12 -7 19 -37 39 -160 l5 -32 148 0
148 0 -23 133 c-12 72 -80 463 -150 867 -70 404 -131 741 -137 748 -7 9 -57
12 -188 12 -177 0 -180 0 -189 -22z m210 -577 c0 -9 23 -167 50 -351 37 -254
46 -338 38 -348 -9 -10 -37 -13 -119 -10 -59 1 -110 6 -114 10 -6 5 99 699
112 738 4 12 7 12 19 -4 8 -11 14 -27 14 -35z"/>
<path d="M4897 2303 c-3 -5 -6 -399 -8 -878 l-4 -870 418 -3 418 -2 -3 147 -3
148 -262 3 c-200 2 -263 5 -264 15 -1 6 -2 334 -3 727 l-1 715 -142 3 c-78 1
-144 -1 -146 -5z"/>
<path d="M8167 2303 c-4 -3 -7 -399 -7 -880 l0 -873 150 0 150 0 0 375 0 375
113 0 c129 0 174 -15 221 -71 63 -74 64 -82 66 -601 l0 -78 151 0 150 0 -3
318 c-5 351 -8 370 -72 472 -64 101 -63 94 -23 139 43 48 85 127 103 196 18
67 18 197 -1 270 -47 180 -221 328 -418 354 -85 12 -570 15 -580 4z m544 -303
c157 -29 222 -202 122 -320 -58 -67 -96 -80 -245 -80 l-128 0 0 198 c0 109 3
202 7 205 10 11 184 8 244 -3z"/>
<path d="M9386 2302 c-4 -7 -9 -1239 -6 -1669 l0 -83 150 0 150 0 -2 878 -3
877 -142 3 c-78 1 -144 -1 -147 -6z"/>
<path d="M9820 2155 l0 -155 165 -2 166 -3 -1 -706 c0 -389 3 -714 6 -723 5
-14 27 -16 150 -16 l144 0 0 725 0 725 169 0 c145 0 170 2 175 16 8 20 8 258
0 278 -5 14 -58 16 -490 16 l-484 0 0 -155z"/>
<path d="M10936 2302 c-4 -7 -9 -1298 -7 -1669 l1 -83 150 0 150 0 0 375 0
375 189 0 c171 0 190 -2 196 -17 3 -10 6 -144 5 -298 -1 -154 -1 -315 -1 -357
l1 -78 150 0 151 0 -3 678 c-1 372 -5 767 -8 877 l-5 200 -134 3 c-74 1 -138
-1 -143 -6 -5 -5 -9 -154 -9 -331 0 -178 -4 -334 -9 -347 l-10 -24 -182 2
-183 3 -5 350 -5 350 -142 3 c-78 1 -144 -1 -147 -6z"/>
<path d="M12146 2302 c-4 -7 -10 -1539 -7 -1715 l1 -38 148 3 147 3 3 638 c1
350 5 637 10 637 4 0 61 -79 127 -176 66 -97 122 -177 126 -179 3 -3 62 77
130 175 68 99 127 180 131 180 4 0 8 -62 8 -137 0 -76 3 -325 6 -553 3 -228 5
-454 5 -502 l-1 -88 145 0 c108 0 147 3 150 13 3 6 1 401 -3 877 l-7 865 -155
2 c-85 2 -160 0 -166 -5 -6 -4 -61 -80 -123 -169 -62 -90 -115 -163 -119 -163
-4 1 -41 51 -82 112 -41 61 -94 137 -118 169 l-42 59 -155 0 c-84 0 -156 -4
-159 -8z"/>
</g>
</svg>
